<svg xmlns="http://www.w3.org/2000/svg" viewBox="0 0 431 120" width="431" height="120"><path d="M20.00,116.00 L20.00,26.00 L44.00,26.00 L70.00,62.00 L96.00,26.00 L120.00,26.00 L120.00,116.00 L96.00,116.00 L96.00,70.00 L70.00,106.00 L44.00,70.00 L44.00,116.00 Z" fill="#FFFFFF"/><path d="M52.65,32.00 L68.20,53.60 Q70.00,56.20 71.80,53.60 L87.35,32.00 Q70.00,42.00 52.65,32.00 Z" fill="#E3A031"/><path d="M70.00,12.00 C72.00,17.00 75.20,21.50 75.20,27.00 A5.20,5.20 0 1 1 64.80,27.00 C64.80,21.50 68.00,17.00 70.00,12.00 Z" fill="#E3A031"/><path d="M169.826 35.585Q169.367 34.701 168.551 34.2505Q167.735 33.8 166.664 33.8Q165.491 33.8 164.573 34.327Q163.655 34.854 163.1365 35.823Q162.618 36.792 162.618 38.067Q162.618 39.342 163.1365 40.3195Q163.655 41.297 164.573 41.824Q165.491 42.351 166.664 42.351Q168.245 42.351 169.231 41.467Q170.217 40.583 170.438 39.07H166.001V37.522999999999996H172.512V39.036Q172.325 40.413 171.53449999999998 41.569Q170.744 42.725 169.47750000000002 43.4135Q168.211 44.102 166.664 44.102Q164.998 44.102 163.62099999999998 43.3285Q162.244 42.555 161.4365 41.178Q160.629 39.801 160.629 38.067Q160.629 36.333 161.4365 34.956Q162.244 33.579 163.6295 32.805499999999995Q165.015 32.032 166.664 32.032Q168.551 32.032 170.0215 32.9585Q171.492 33.885 172.155 35.585ZM187.693 44.0 184.973 39.274H183.494V44.0H181.556V32.185H185.636Q186.996 32.185 187.9395 32.661Q188.883 33.137 189.3505 33.936Q189.818 34.735 189.818 35.721000000000004Q189.818 36.877 189.1465 37.820499999999996Q188.475 38.763999999999996 187.08100000000002 39.104L190.005 44.0ZM183.494 37.727H185.636Q186.72400000000002 37.727 187.2765 37.18299999999999Q187.829 36.638999999999996 187.829 35.721000000000004Q187.829 34.803 187.28500000000003 34.284499999999994Q186.741 33.766 185.636 33.766H183.494ZM198.794 38.067Q198.794 36.333 199.60150000000002 34.956Q200.40900000000002 33.579 201.79450000000003 32.805499999999995Q203.18 32.032 204.829 32.032Q206.49500000000003 32.032 207.88050000000004 32.805499999999995Q209.26600000000002 33.579 210.06500000000003 34.956Q210.86400000000003 36.333 210.86400000000003 38.067Q210.86400000000003 39.801 210.06500000000003 41.1865Q209.26600000000002 42.572 207.88050000000004 43.3455Q206.49500000000003 44.119 204.829 44.119Q203.18 44.119 201.79450000000003 43.3455Q200.40900000000002 42.572 199.60150000000002 41.1865Q198.794 39.801 198.794 38.067ZM208.87500000000003 38.067Q208.87500000000003 36.757999999999996 208.35650000000004 35.772Q207.83800000000002 34.786 206.92000000000002 34.259Q206.002 33.732 204.829 33.732Q203.65600000000003 33.732 202.73800000000003 34.259Q201.82000000000002 34.786 201.30150000000003 35.772Q200.78300000000002 36.757999999999996 200.78300000000002 38.067Q200.78300000000002 39.376 201.30150000000003 40.3705Q201.82000000000002 41.365 202.73800000000003 41.9005Q203.65600000000003 42.436 204.829 42.436Q206.002 42.436 206.92000000000002 41.9005Q207.83800000000002 41.365 208.35650000000004 40.3705Q208.87500000000003 39.376 208.87500000000003 38.067ZM221.829 32.185V39.716Q221.829 41.059 222.5345 41.739Q223.24 42.419 224.49800000000002 42.419Q225.77300000000002 42.419 226.4785 41.739Q227.184 41.059 227.184 39.716V32.185H229.122V39.682Q229.122 41.127 228.493 42.13Q227.864 43.133 226.81 43.626000000000005Q225.756 44.119 224.48100000000002 44.119Q223.20600000000002 44.119 222.1605 43.626000000000005Q221.115 43.133 220.50300000000001 42.13Q219.89100000000002 41.127 219.89100000000002 39.682V32.185ZM242.858 39.206H240.716V44.0H238.77800000000002V32.185H242.858Q244.21800000000002 32.185 245.16150000000002 32.6525Q246.10500000000002 33.12 246.57250000000002 33.919Q247.04000000000002 34.718 247.04000000000002 35.704Q247.04000000000002 36.605 246.615 37.403999999999996Q246.19000000000003 38.203 245.25500000000002 38.7045Q244.32000000000002 39.206 242.858 39.206ZM245.05100000000002 35.704Q245.05100000000002 33.766 242.858 33.766H240.716V37.625H242.858Q243.96300000000002 37.625 244.507 37.1235Q245.05100000000002 36.622 245.05100000000002 35.704ZM257.971 33.748999999999995V37.217H262.051V38.798H257.971V42.419H262.56100000000004V44.0H256.033V32.168H262.56100000000004V33.748999999999995Z" fill="#C9CED4"/><path d="M214.562 53.668V100.0H203.276V72.214L192.914 100.0H183.806L173.378 72.148V100.0H162.092V53.668H175.424L188.426 85.744L201.296 53.668ZM235.08800000000002 53.668V81.388Q235.08800000000002 85.54599999999999 237.13400000000001 87.78999999999999Q239.18 90.03399999999999 243.14000000000001 90.03399999999999Q247.10000000000002 90.03399999999999 249.21200000000002 87.78999999999999Q251.324 85.54599999999999 251.324 81.388V53.668H262.61V81.322Q262.61 87.526 259.97 91.816Q257.33000000000004 96.106 252.87500000000003 98.28399999999999Q248.42000000000002 100.462 242.942 100.462Q237.46400000000003 100.462 233.14100000000002 98.31700000000001Q228.818 96.172 226.31 91.84899999999999Q223.80200000000002 87.526 223.80200000000002 81.322V53.668ZM295.478 100.0 285.842 82.50999999999999H283.13599999999997V100.0H271.84999999999997V53.668H290.792Q296.27 53.668 300.131 55.581999999999994Q303.99199999999996 57.495999999999995 305.90599999999995 60.829Q307.82 64.162 307.82 68.25399999999999Q307.82 72.874 305.21299999999997 76.50399999999999Q302.606 80.134 297.524 81.652L308.216 100.0ZM283.13599999999997 74.524H290.132Q293.234 74.524 294.78499999999997 73.006Q296.336 71.488 296.336 68.716Q296.336 66.076 294.78499999999997 64.55799999999999Q293.234 63.04 290.132 63.04H283.13599999999997ZM337.586 53.14Q345.836 53.14 351.71000000000004 57.495999999999995Q357.584 61.852 359.564 69.376H347.156Q345.77000000000004 66.47200000000001 343.22900000000004 64.95400000000001Q340.688 63.436 337.454 63.436Q332.24 63.436 329.006 67.066Q325.772 70.696 325.772 76.768Q325.772 82.84 329.006 86.47Q332.24 90.1 337.454 90.1Q340.688 90.1 343.22900000000004 88.582Q345.77000000000004 87.064 347.156 84.16H359.564Q357.584 91.684 351.71000000000004 96.007Q345.836 100.33 337.586 100.33Q330.85400000000004 100.33 325.54100000000005 97.327Q320.228 94.324 317.25800000000004 88.97800000000001Q314.288 83.632 314.288 76.768Q314.288 69.904 317.25800000000004 64.525Q320.228 59.146 325.54100000000005 56.143Q330.85400000000004 53.14 337.586 53.14ZM365.9 76.702Q365.9 69.904 369.101 64.49199999999999Q372.30199999999996 59.08 377.74699999999996 56.044Q383.192 53.007999999999996 389.726 53.007999999999996Q396.26 53.007999999999996 401.705 56.044Q407.15 59.08 410.28499999999997 64.49199999999999Q413.41999999999996 69.904 413.41999999999996 76.702Q413.41999999999996 83.5 410.25199999999995 88.945Q407.084 94.39 401.672 97.426Q396.26 100.462 389.726 100.462Q383.192 100.462 377.74699999999996 97.426Q372.30199999999996 94.39 369.101 88.945Q365.9 83.5 365.9 76.702ZM401.936 76.702Q401.936 70.564 398.60299999999995 66.901Q395.27 63.238 389.726 63.238Q384.116 63.238 380.783 66.868Q377.45 70.49799999999999 377.45 76.702Q377.45 82.84 380.783 86.503Q384.116 90.166 389.726 90.166Q395.27 90.166 398.60299999999995 86.47Q401.936 82.774 401.936 76.702Z" fill="#FFFFFF"/><rect x="275.7" y="36" width="137.9" height="3" rx="1.5" fill="#E3A031"/></svg>